<?xml version="1.0" encoding="UTF-8" standalone="no"?>
<svg
   xmlns:dc="http://purl.org/dc/elements/1.1/"
   xmlns:cc="http://creativecommons.org/ns#"
   xmlns:rdf="http://www.w3.org/1999/02/22-rdf-syntax-ns#"
   xmlns:svg="http://www.w3.org/2000/svg"
   xmlns="http://www.w3.org/2000/svg"
   xmlns:sodipodi="http://sodipodi.sourceforge.net/DTD/sodipodi-0.dtd"
   xmlns:inkscape="http://www.inkscape.org/namespaces/inkscape"
   width="70.789"
   height="26.154"
   viewBox="0 0 70.789 26.154"
   version="1.1"
   id="svg6"
   sodipodi:docname="logo.svg"
   inkscape:version="0.92.3 (2405546, 2018-03-11)">
  <metadata
     id="metadata12">
    <rdf:RDF>
      <cc:Work
         rdf:about="">
        <dc:format>image/svg+xml</dc:format>
        <dc:type
           rdf:resource="http://purl.org/dc/dcmitype/StillImage" />
        <dc:title></dc:title>
      </cc:Work>
    </rdf:RDF>
  </metadata>
  <defs
     id="defs10" />
  <sodipodi:namedview
     pagecolor="#ffffff"
     bordercolor="#666666"
     borderopacity="1"
     objecttolerance="10"
     gridtolerance="10"
     guidetolerance="10"
     inkscape:pageopacity="0"
     inkscape:pageshadow="2"
     inkscape:window-width="757"
     inkscape:window-height="543"
     id="namedview8"
     showgrid="false"
     inkscape:zoom="6.9361057"
     inkscape:cx="46.527952"
     inkscape:cy="10.93801"
     inkscape:window-x="43"
     inkscape:window-y="27"
     inkscape:window-maximized="1"
     inkscape:current-layer="svg6" />
  <g
     id="logo"
     transform="translate(-138.92 -36)">
    <g
       id="Group_27"
       data-name="Group 27"
       transform="translate(-2)">
      <path
         id="Path_42"
         data-name="Path 42"
         d="M1.288,0H5.8V-12.9H1.288ZM3.565-14.1a2.383,2.383,0,0,0,2.622-2.3,2.4,2.4,0,0,0-2.622-2.346A2.411,2.411,0,0,0,.92-16.4,2.391,2.391,0,0,0,3.565-14.1ZM20.539-4.922c0-5.2-7.8-4.416-7.8-6.831a1.075,1.075,0,0,1,1.2-1.15,1.391,1.391,0,0,1,1.5,1.472h4.9c-.161-3.22-2.6-5.037-6.325-5.037-3.427,0-6.072,1.7-6.072,4.876-.069,5.635,7.8,4.416,7.82,7.015,0,.759-.621,1.173-1.426,1.173A1.535,1.535,0,0,1,12.7-5.037H7.889c.184,3.473,2.99,5.2,6.6,5.2C18.331.161,20.539-2.07,20.539-4.922Zm18.17-3.243a8.1,8.1,0,0,0-8.3-8.3,8.134,8.134,0,0,0-8.326,8.3A8.153,8.153,0,0,0,30.406.161,8.134,8.134,0,0,0,38.709-8.165Zm-12.029,0c0-2.553,1.38-4.163,3.726-4.163,2.323,0,3.726,1.61,3.726,4.163,0,2.507-1.4,4.14-3.726,4.14C28.06-4.025,26.68-5.658,26.68-8.165Z"
         transform="translate(173 57)"
         fill="#2c2c2c" />
      <path
         id="Path_41"
         data-name="Path 41"
         d="M23.091,20.071a3.051,3.051,0,0,0-1.685.507l-4.621-4.643a.611.611,0,0,0-.128-.1,4.479,4.479,0,0,0-.844-6.265l1.9-3.344a3.18,3.18,0,1,0-1.067-.6l-1.9,3.34a4.474,4.474,0,0,0-4.371.586c-.009-.011-.017-.023-.027-.033L7.746,6.9a2.042,2.042,0,1,0-.855.879l2.59,2.6c.01.01.022.018.033.027a4.473,4.473,0,0,0-.2,5.159L5.035,19.28a3.175,3.175,0,1,0,.829.9L10.117,16.5a4.475,4.475,0,0,0,5.707.181.6.6,0,0,0,.092.121l4.621,4.643a3.067,3.067,0,1,0,2.555-1.372Z"
         transform="translate(140.92 35.946)"
         fill="#0cda90" />
    </g>
  </g>
  <rect
     style="opacity:1;fill:#ffffff;fill-opacity:1;stroke:none;stroke-width:5.23084307;stroke-miterlimit:4;stroke-dasharray:none;stroke-opacity:1"
     id="rect822"
     width="43.540283"
     height="25.80699"
     x="27.525904"
     y="0.15361334"
     rx="0"
     ry="0" />
  <text
     xml:space="preserve"
     style="font-style:normal;font-weight:normal;font-size:72.22969818px;line-height:1.25;font-family:sans-serif;letter-spacing:0px;word-spacing:0px;fill:#000000;fill-opacity:1;stroke:none;stroke-width:1.80574226"
     x="37.606045"
     y="16.050415"
     id="text826"
     transform="scale(0.6748944,1.4817133)"><tspan
       sodipodi:role="line"
       id="tspan824"
       x="37.606045"
       y="16.050415"
       style="font-style:normal;font-variant:normal;font-weight:900;font-stretch:normal;font-size:21.33333397px;font-family:Montserrat;-inkscape-font-specification:'Montserrat Heavy';letter-spacing:0.80000001px;stroke-width:1.80574226">unsta</tspan></text>
</svg>
